<?xml version="1.0"?>
<svg xmlns="http://www.w3.org/2000/svg" viewBox="0 0 16 16">
    <path style="line-height:normal;text-indent:0;text-align:start;text-decoration-line:none;text-decoration-style:solid;text-decoration-color:#000;text-transform:none;block-progression:tb;isolation:auto;mix-blend-mode:normal" d="M 3.5 2 C 2.6774686 2 2 2.6774686 2 3.5 L 2 12.5 C 2 13.322531 2.6774686 14 3.5 14 L 12.5 14 C 13.322531 14 14 13.322531 14 12.5 L 14 3.5 C 14 2.6774686 13.322531 2 12.5 2 L 3.5 2 z M 3.5 3 L 12.5 3 C 12.781469 3 13 3.2185314 13 3.5 L 13 12.5 C 13 12.781469 12.781469 13 12.5 13 L 3.5 13 C 3.2185314 13 3 12.781469 3 12.5 L 3 3.5 C 3 3.2185314 3.2185314 3 3.5 3 z M 6 5 C 5.4534686 5 5 5.4534686 5 6 L 5 11 L 11 11 L 11 10.5 L 11 6 C 11 5.4534686 10.546531 5 10 5 L 6 5 z M 6 7 L 10 7 L 10 10 L 6 10 L 6 7 z" font-weight="400" font-family="sans-serif" white-space="normal" overflow="visible"/>
</svg>
